<mxfile host="Electron" agent="Mozilla/5.0 (Windows NT 10.0; Win64; x64) AppleWebKit/537.36 (KHTML, like Gecko) draw.io/25.0.2 Chrome/128.0.6613.186 Electron/32.2.5 Safari/537.36" border="50" scale="3" compressed="false" locked="false" version="25.0.2">
  <diagram name="Blank" id="YmL12bMKpDGza6XwsDPr">
    <mxGraphModel dx="1327" dy="210" grid="0" gridSize="10" guides="1" tooltips="1" connect="1" arrows="1" fold="1" page="0" pageScale="1" pageWidth="827" pageHeight="1169" background="none" math="1" shadow="0">
      <root>
        <mxCell id="X5NqExCQtvZxIxQ7pmgY-0" />
        <mxCell id="1" parent="X5NqExCQtvZxIxQ7pmgY-0" />
        <mxCell id="MY_W3X7f-8wFEVNyCxj--10" value="" style="shape=image;verticalLabelPosition=bottom;labelBackgroundColor=default;verticalAlign=top;aspect=fixed;imageAspect=0;image=data:image/png,iVBORw0KGgoAAAANSUhEUgAAA9gAAADtCAYAAABEdd3yAAAAAXNSR0IArs4c6QAAAARnQU1BAACxjwv8YQUAAAAJcEhZcwAAEnQAABJ0Ad5mH3gAAEApSURBVHhe7d1/fBX1ge//t8XWH4GTSBGiiAFytIKipigURNwYsyVf3PUbA0vFsqXXAOau7FZ7bamAD6+AG3W1e1e2KT/cdatiKYm59KvfuDdEtohQqGwUFNx6AkFEAiImB+Jv6v1j5pwz85k5J+eECZDk9Xw8zkMzn8nMnJk54bzn8+uMvLy8rwQAAAAAAE7I18wFAAAAAAAgcwRsAAAAAAACQMAGAAAAACAABGwAAAAAAAJAwAYAAAAAIAAEbAAAAAAAAkDABgAAAAAgAARsAAAAAAACQMAGAAAAACAABGwAAAAAAAJAwAYAAAAAIACnKGCXq+T5PVrYsEczKsyyXmxOm5pfatPD5nLbzLLbVHvPbXpslFlyYmaW3aba8ss10SxI16gJqr3nBLcRk3u5nrnnNtXeM0EzzTJ0zD5/Qd8jXSqQax7SgnLr82G9JmtBrrmOQyD77Bqxz/kzhSGz6PSR4j6bWDg59fF38HcOAACgOztFAbs3KNKyhke1dnHYLPBX1K7tpa2K/r6vfmqWoVNO+MFBxobosVTB4iSYOGKosqLbtXaHWdLTRbV45XMqffw5ldbvMwtPvRSBtDs6oftsWV9tamvVtNXtmmWWAQAAdHOnKGCvVN2tw7SoaJierjLLeqPPtO7ewwrtztWVD/QxC+N2H4lKiuqjD8ySU2zHRivYrHxLG8yyTLW8pe8//pxKH9+op8wydGCIbikIqb1p34lfh5PpVFzzU7HPND1VYz0o+P76qFl0mkh9n2043CZJOng42fH30fRpuYpkH9b8X3xmFgIAAHRrpyhgw2nWA1GFlaPV//0sswhI36g8DVdUb+9KFmyAAARyn52lm2pzpOEtWjfHLAMAAOi+zsjLy/vKXOhR/KzmzhuvnPiCqF6rvEp19dZPuYvf0KxxIalptRbNnhdfy7u8XCXPz9c12f7bcfHsM6IXiorV6FrJsY8Y4xgyUnGXGqbkmUsl7dWaoqX6pf1T0eL7dd+4fvHSY5uX6ZYFEd8yk3Ndy2da91KLBv7+opS112kZNUG1xUMcC/ZprU8N3cTCybq7wGjGHN2un698SxtyL9cz04fq7VXbdd70CRquqLatelHvXXebbslzrCef/e3dqNIao3lufHuObcjYTny9K5UV+9ksd/Acv3O/5nZMju1a22nT2se366LyyRod26TPvmeWOY5d7n16jsfQ3viiuzbSc4zmdRqix+6ZoEGNL+r7h690nePd9c/px77NckNaUD5Zoz/yuQZ+x2heq3SvkxQ/vuHxn83jj7GPKb5b615a3GL/aJ4H333ZzHst6T5j62a79xWT1j7N9+dgnjfPe3Rfb899Y3BeT3Pd5NfaPD7jvMa2pY0qfTXker9+2zT367lfXVLfZ5k5rlWr39N4DdCSaVlaYRYDAAB0Q2kE7ErNeH6I6m+9XbHvbwXL9+jmfHc49iyLBeRkgbeiXgunDPQN2LHQ3FydaELu2X58PXmWFe+/KvOm53a4jlTfqzlVsvtQT1K4rVEP3bpKDfZqdy5/VFPzHYG7eLrWziuQPMHZ+v1cz3LDnDY1l36uTY+er+mxnXRG7uV65rqovh//0hv74u8OItaXaZ9l57kDtqLS2y+8It08WZcpqqyPtqv0j3lJgkuKL92OQJP44m4HBE9YsbiOxyizgqJcxzCxcLJuOfyif3BIsh0ZoTPVsXm2H3tPnuN3BOMkASW2T2+wcoYkZ4BKXCu/9x5nH9NBnwDl93tJ35OcIdJ7LmLryRMijcAb254rwIa0oGyINtR4r0fKa5XmvR2XKmA7pNynadQE1RbLs7+ZZZN10auO/dgPAjwhNcX18Ui1rs/2k99T6vD+8bt2nvfklOrYOmHWAx9o/nd04n//AAAAThNpNBGfp6cd4VqSGtdsUqtCCt9Qnlg2e4leawvpmopnlatylVSMV07bJq3wC9cpVap4XEitm5e4QnLj7NVqVkjXTK2ML7tgYEhqe1ONjoDesqAT4VrSnQV5UlujfhP/3Qb9ZvNRKTusomJ7UfF0leRLkepEbbbqV+mfNh9V33GTdGdsWQYevqpVajtX60/0y2XLW44AImvQpy1WSBoVG1gp93LdlCftrvcJJS4hZX20Pf4FOyvUprWOcHPe+c5107R3oyNw7NOOvZLOC2U8ANnw/iEp2qwNjhtyw3pvuM7E7npnf1fvsXm23/KW1u2VlJeX4QjUdt/VRvf2nqrZqN0KafR1zhpau3bVEXw27GpWe5Lzn2rQqYzOmeuhwT6tbYy63ufM66zQvNwRHq3jH6KbHIO7xdZzh9eoFvuE6w6lc293qSF6rHiI7+fmqRojiO7Yrm1RKSt/SMb3dsdCWjB2iPFZkjasf0XbotLwseaAflFtW5Xq/gnpovMk7d3rel+e9+SQ6j7rjBWvnKuoPtbANMeCBAAAON2lEbB91O9Tq7lMK1VXtUmt2eM1q2G+rsmO6rUqdzBPS8VoDZXUun+lUTBPbzZJGjBEsdl3DhyKStnjNev5Z+PLOiesiweYy2KO6F07wBfdEFZf7VWjEeAb9h+R1F8Xx4J42o5ryDclfXhm1zSP/OAjtTt+nDhiqLK0TzvS+HK8+4+OQBP9SLudhZ3g2t4J2H0kKoWu1N2BjQ7uHTTuqZqOB2yzBpzL0Kg8Dfcd/Mkb6iVJH0Xdx2APzOUNxqkHncrknJnXyRqwKlsX5coKtHny2U+bPopKWf1jfT+SrRcg497uSjPLJmh42qEyqvc+MpcFJHeILgtJ7UesQcQSotrQFJVC57mbtRsPVbzsY82boNoy4+GOr9T3Wac0nKlDkgZecNwsAQAA6JbSCti5i9/QwgZr3mrrNU1DzZUkqf52rdlshYfWzU94mn6nL6rDyVpVZw/UBfb/tiy4SouqI1bIjh3b8kQNd/oiuq9+r5RdoL+Kz8tdpL8a109q2hWvrb5kYD9JeZra8KganC/fftsn30x7/tz4K1Vf5G5qw/oXrWmYQlfq7tj7TCscnAhr+i3nuU3V5zo1b6CPMwNSukblabj2aV2SZumBnbPckAZJyiqw5jl2zjnt7IMcW8/7IKHzTtm9PWqC1Xz/hSQPXHJj82knXqn6XAch+XmNPQhJ31M1z+nnjVErZNvHn3SauQ7uMwAAAKQRsJ39oRcVxV6r1WyuKKtf9axxITU3RZQzbr5mxMNqgNoO6YDz56ri+HG90CQpf1qnQnbR4P6SpPCUWHCepHDTSyqanWi7/c6ho/aAZ/eqyPN6UPd1+oHCiUv047XnAn78OZWu2n7SavlOqti0YI8/p7V7M6mB6wy7H3J0u34eO6+P26EkaJ1qKRBrNuxu5usRxDlrieqg3V89fo85X7Fm3PZ6gwYkCWoZOnX3ttU0vL3xFf8m086++I7zsHavueLJ0qb3/I6zAxvWx67ni1bz9oLJPiE7zfsMAACgl+sgYJerYGRIatuk+g77NVdqxpSw1LRaT89erdfapKFT6lVgrtaRqm1qNvp3Wyp1Rb7UunN90mbnjbPtkO1oRh53w3z9qqZGNTX/oB+YZXZt9bHNy9yh2RGulXFT8L36sE3qOzBVdVYf7ftQ0je/1CyzKCNWk1ztTfSb9uNu7muz+2V3V0/V2IHGbF4dbxrdyVrhGLtZ9+4tSWowXcym0oYde7VbIV02wgwvJ9Ck2m42bDbtTiXVOTPNvHSIo6lxB+8vzl4vkH7I6d3bXSHWNNzZ39zJ6nIR1bZX0zj3QTx0aNmnt6PS8EvNByMhTcwPBRB+o1q80g7Z5jXuxH2WlqIvNVDSoQMnOIMCAADAaaKDgL1SLYclZV+hgvhAX89qrqeJeLlKnp+moYrohdnzEv2xFdbNGdcmz1P95qhyxs1ViSPIFiy3tr9xQaxvdrlKnjcDvBXCdXifJ4RfP+5bdpPSYRr1Q6MwrTAsqeolbWnrp7Hz7kpjQLOI3j0sKf86PZQikP/0jRwp+2MVFpklmbACjWvQrVETvM1o7YCXGExriB6bfqUU9Q8Qp5+QFpRPMAYWswOY2V85/kDBPfhWxuy+vs5QM7MsWRPxWJ/WK7XA84RH8UHDsgqud5XPLJvQ6aa3scHEkvcPzuycuYyaoFvynA8X7MHF8ib41HA62euFrtTdrlrykBaUddwP3C3NeztoHTUNj99fzgcmIS0oT9ZE3H7oUHBlhgPjOSXO/2OOwd0mFl6v0aE0g77LED1m9stP0s+74/usc2Zd/7FCOleHknUJAgAA6GbSmKbLnLs6oheKtumKhmnK2bxETyxYaU+hJbXaP8d45sH2zG3t0LZJKxyjlXvmtzbKLZWaYYR98xjibpivX/3tt5WlPfpt2f/Qv5nl9nRbfc3lOqotle7m39ZUXc51JBnNyS1hPfT8HI11VAZ13TzYxty40e36+QvSbHNKHdc8wNbUUBtGTNbd+c2Oabpiv2NPhyR7NGh7iqDYdEDm/LlO8SmDkkzrY06R5Jmn2cE95ZE5B7BZ7ubZrmce7CTTXjkZczC3N76o5brenkPbHFk69bzI6uCYLD7TY/nqeFowSxrnzHVfxHjnV5YyWNeznnsdz3lwSHnN/e5tz74cPNe8o316z1eCe0orc3u765/TjkuTTf/l3W5iai1vWYIxHVkac4Kbny8pyWfR57x558pO9z7LlD0P9oe5GvrfzzILAQAAuqU0AnYvEAvXnpAcC8iOea+7AHPBolOSzM3cKX7hC1DA95nTnDY1l37O3z0AANCjdNBEvJcI91dfSZFG81ue3cy7i614IKSIPtb42e0n2BcbvQeDTuFk6Kr77DOtK22VdocI1wAAoEchYEtS5IiOSQoXGB2hK+6ymoI7purqGmfppkcHKJp9WPN/8ZlZCPiIavFKx8jdQJfoivvsuFatblG4bYCW0DQcAAD0MDQRj0nSBztSfa/mdDiCekDmtKm5VFo9KVs/NcuArkQTcZws/J0DAAA9GAEbAAAAAIAA0EQcAAAAAIAAELABAAAAAAgAARsAAAAAgAAQsAEAAAAACAABGwAAAACAAJzcgF08XWsbHtWyCrPg5Jr1wAdqXt2uWWZBZ1y4VPWlSzXHXI6MzRlTp/ox5ebibqhQS26qU31pnepvelA3msUAAAAAeqRgA/ZpEqBTmtOm+d/5WJGXs7TCLMtUvwdVOzZfx3bVaJlZhowt2/UHHRtcptrLCs2ibmXOmJ9ojP6gv68tUfG6+/WyuQIAAACAHinYgH26K2rX9tJWRX9/kW464URcrqqbrlXf/TUqfXu9WYjOOHq/Src0qe+In6jqQrOwuyjX1YOlyE6CNQAAANDb9KqA/XDZYYXaBuiJB/qYRRm78bJJCqtJ1VtXmkU4Ee/fper9UnjsSWh2f+GDunxhnYZ+2yw4Af0uVq65DAAAAECvcEZeXt5X5sJM3bn8UU3NN5cmRKrv1Zwquwn5vAK1VN+rxgLH77Q16qFbV6nB9VtFWtYwSeH4z3u1pmipfmmUq/pe/Wbw/bpvXL8k69mK2rX93sM6VJsXTO11aZlydz3iX3tdUa+FUwbqtcqr1DJ1j26On5uIXigqVqNn3cS7VNNqLZo9z7mGJKlguXM7UuvmJXpiQSLcFyzfo5u1WovWDNHceeOVYy9vrh6mp6viq0mSche/oVnjQokFxj5zF7+hWSPf1Ipb96m4YZqG2svNfUqSip917c/3Pfrs03dbMf0eVO1N10rJzm+AQrfXacRw6djWR/TWvwewL/vYW7aUqOJ9sxAAAABATxZIDfYvZ9+roqJ7VVTZqGN2oC4qSrzmGAEvPOVRTdVLdvlLimQX6G8XO0Jm8XStbZik3M3L4ttY05SnqQ136U7nhuxt3TfwVXu9ZdrSlqepz09XkbHerOs/Vkg52nbC4VrShVcrrHbt3J8qkIV0zTw79BYN06KiJXqtLaybn382XsOZu/gNO4gPs9dZreb8aVq4vNK1JStcR/RCUWy9Ydo4cK5Kil2rSfnTtHDeFYrY21uxOaqhU95wrFeukuf3aNa4Q45t2ft0HJckKXu8ZjWU6HDs2Kojyhk3XzOc/evtcK3NS+LHtajykCb4HL9rn5WbpHHzNXdxkgHNjq7XzqNS34sKu3yAsOizJXp9a7v6jvmJxt6e5HgAAAAAIA2BBOyMNb2kotmx+uoGNTZJfUeOiYfiO6cWqG9bo/5pQST+K7+c/ZIiylOJM4jLrv2Obyuihp1Hpez+usS10nEVjvhY2n22fupa3jlzLsqXju5Uw1GzxK118xJHzfBKNe6MStkDdYEkqVLF40Jq3fyE6upjvzFPT1dHpPwSVyjOHSCpaZurVrhx9lWO34uJ6rXKxPKWBXVqVkjhG+zgWDFN12RH9Vqls4bZ3mf2eBUbg9M1Vzv2UbVNzZJyBjtCaHigchRV5HeOmuj62/WEswa++FlNyJeaqx37rL9dazZHlTNumgoSazqsV8N77VI/8zqm56zvVmvswrokr2oNMvp3f/bvU7TlxSZpeJnGzn1QZ7mLAQAAACAtpyRgRxrdjcHdilSQLx3budVoMr5XH7ZJfQfmuZZ61/PzpQZmS9FDZ5oFnVCoi0OSou92OIhV6353E+iWBVdpUaz5dMVoDTXDqSRFDqlVIQ2IP0dYqZbDdu20UTPs0famGl2hO6LDbVLOQGtjBQVhSYfUYgZzv/CsiN40Wh542Md6zTxnLblb7g1XKMdnWy37D0kaqNwkv/dytEVSri6OtfzPwGf/PkVbFpUkeU3RQb+m2/95l7Y8+Qcdy7lWVy9cKkcD+ozcOHik+qpJr/vtAwAAAECPdkoCdkrFg5Qrqe+4OWpoeNTxmqOx2ebK3Vfu4IHxZuQLGxwvV39mS+Nsq7m38qfF10vavLojbYd0wFxmiwXxtNXfrieKVqvZ9T7qXbXSFwwMSQrrZud7bNjj7nd+2snXkO9mNlXYjZdVq760TnP1zyquvYtp2wAAAIBe6PQL2PUH1SLpmKP/tesVbw7evVk1uFFH/2v3yxyYzKr9jvXllnJS9WHupNZDiSb56Zunp2PHXR2xw3QiZB84FLUHPvO+x0VFfs3cT1ymTcQlSd9eqrF3XKu+rX/Q64tKMh7w7OW3p6i4tkRP6G9UX3oSRkAHAAAAcNpJP2DfMF+/qqlRTc0/6AdmWYwdjnMHn0jtpH9T8BNzpg61SaGBX5oFnbBe70YlhS4+sQG4PE3B07VSdbfaIbujGufiQoWzpeZGq090Y2NEyr5CBWaz7GTN1TNVVWyH7ETT746agidzYyhXUove7aCfu59Mm4if9d1qjZ2cL+2u0ZYn7tdn7uKMvLx/p44pX1f7hXgAAAAAPVraAfv6cd9SliRpmEb90CyNscPxuEme0b7TF9F99Xul/Elaaw5o1ml9tH7XudLwT/WwWdQJy95rkvqNVFEn+gfH1d+ujU0yRvn2U6kZ5gjfdnBOXeNcrpKK8cpp26T6WG141Wq91hbSNRXO7VVqxpSw1FSXcW1y7uI33KOK+/Xzju1znrvpeGqFKrooSzp6RO+YRQEL3V6nq8dk6djWR7Tl2RN8wAAAAACgV0s7YL+y+b/ULknaox3/apbGRHTfrdZo31Md/aeXGSGsQ1VLVVTZKHn6Yd+vh1KG0eRWvHKuomrV6CDa7r7/uiLK0sjBmfXTNVl9q+Xth+0K1PP0dJU01ein3Vo9zDuPdPZ4zYqvN1/XHF6tRbferpb4Cnbtt5zrTVOOa7Tz9LUsuEpvFriP/eYBm7TCNQ/2StXdOkwvNPn0w042aFu/Qo3sJ0V23t/hQHIn5MIHNWS4dPDFzJuEAwAAAIDpjLy8vK/MhT3Vw7/Yq2nDc7R6UvYJT9d142XV+tkIaeu6KZrfiWbMQStYbodbV6DunuaMqdOU0B/09+u6OGB3hX4Pqvama9WypUQVjCQOAAAA9Cpp12D3BD+tGaCoWjXtFyfSy9by8tsvKaIsjRn74In1xYbbhUs1ZfBJqL3uKkff7fYPOAAAAAB0Tq8K2GrI0pW1OdLwFm1/4LhZmqGVqlj3Bx3rd61+NibY0bx7rX4PqnZsvo7teqQb1/426chRKTySBy8AAABAb9O7ArYkLcvWkt+fq9CITzXLLMvU0ftVuqVJGnw10zIFYM6Ia9V3f41K3+7O/aHXa/66R7RV1+pnpXWqv4mgDQAAAPQWvaoPNgAAAAAAXaX31WADAAAAANAFCNgAAAAAAAQgZcAeNmyYzj77bHMxAAAAAAAwpAzYAAAAAAAgPQRsAAAAAAACQMAGAAAAACAAKafpGjZsmA4cOKBPP/3ULEI6ip/V3HnjlaOIXigqVqNZnpZylTw/X9dkx36O6rXKq1RX714rrqJeC6eEpbZNWnHr7Woxy0+ZxPtorh6mp6vM8l4m5XXK8JqnVKkZDdOUs3mJnliw0ix0CHKfp0J3P36clirqtXDKQO4lAACQNmqwT3srVXfrMC0qGqZF1RGz8NQrflZzG/ZoRoVZgM47Fdf8VOwzSN39+NHzVGpGwx7NXVxuFgAAgB6MgN2V6m/XE0XDtKjTtdedUFVshQxPreiplghAp1vtde7iN7SwYY8WNtSrwCzsKqftdQIAAADQWQRs9HLlKhgZUuvmTWpWWFdQEw8AAACgk7p9H+zcxW9o1rhQYkHTai2aPc9dPvJNrbh1n4obpmmovbzVt0+q1V81to6S9p3uYL1432ubbz9bS8HyPbo537HAOH6XVP0BY316Y3y3Yx63g7m++R6MPq2e4zYk+lln0jfWPD5zXatc1cNUP9h53f2vk3mMvte8+FnNnXeFIpVXqWXqHt0s93mwtuG3fftYneetg3MmpXudHFJdc6Wzz0Qf7DWa2+E5k9LYp+c6pdhWMvZxy+eaWJ9pufdvnrdU+0xx/Na2Dxm/m6SfurnPjq7VyeB4by1Tnfe33/lI7zp19DnJ5G9oR3+PPZ+32H79/kZ67m3/4w/0Onn2KZ/PlPk3zX0uPOfAYJ438/wnP/7rNf9ff6Rvh/bot2X/Q/9mFgMAgNNCt67BTnwRt/teFg3TikMl3v7A2eM1yw5msT6aOePmu9crflZz7S/ZsW290BTWzWaz4Yp6LYwFK3u9RUXbdMXyysQ68abhw/RCk/OX3XIXv6ErGhPHvqhyk1rzp2mhc1vpijU5Llqi19rMwph5ejp+zM7+qhG94PpCV6kZFdIax3ovNIV0zbw3VFJsrdE423HMdqB2bjfRDDzNvrH2eXWe/xWbpWvmeft3D52yR7MG1jneb1g3P/+sch3rJIJx4pg2DpwbP/6Y3BuuUE7bm2qslxobI1L+aNf1bmyMSH412xWjNVRRvbYmdt46PmdSutcpXWnuU5JGzrVCUopzlpZ0PycdqV+vSJuUM7LQOAarRYGa6hKBpvhZzS3Y5ri/7OPPdJ8ZyF38hh1kY/tcrebOfjYDF9I18+yHQcmuZ5rXKd3PScd/Q8tV8vwe++GFcc4895l1/BMOxY5ttZqzx2uW89w6HsDEr3vlIU0wzn+g16miXgvnjVer82+Zz9+sguVzpSr3Ojnj5sf7WrcsuCpxLHagjq9bNMzz8CLtfwNumKhvhSRpmEb90CwEAACni24dsC8YGJLscBTTsuAq3z6+rpGrq1brtTZpaEHiS0zB1PHKadukNY4vP42zV6tZYU2ID1JTrpLisE8Nwzw97VvjkJrnWOtv18YmeUJe16nUjClhNVebtULz9LRRm9S4ZpNaFVL4hq4YsCdxXp1fPlsWPGFdp2LjC3rbJq2In++VatwZlbIH6oL4CuXKHSCpaZvrfTXONms07ebhO9db77Vqm7eZeNU2Nct9r0hSQUHYuPdO9jlTRvvM0ZuOGsKVqquPSNnjVWw+OOhAep+TdMSu2xUqcIa54kKFs6XmRsfnqf52PeH6fNnHb16rwFSqeFxIrZufcNwv8/R0dUTKL/GGz5Tu0D+9+KJeTPZ64g7zF9LSunmJ42+Q9zOQ3nVK93NiSfk3tGKarsmO6rVK598S+5z53Weuz/o8vdkkacCQxOc8PFA5iiryO0cNuec+CPI6Jf4G+f374eQ5P/a58D4s6lhG/wb8boP+KypJe7TjX81CAABwuujWAfvAoahVs+KpITFF9KbrS9NKtRx2fqGr1BX5SgStuIgOt0k5A+3mh35f/gN24FDUXNRlCpZP09C2Tarv4AulJKl+n1rNZUGxz2vrIbO2yBscJL/rZLKvb7KaoJjiQoWznV/irevtDtPzVL85anzhTXa/GLrynCWTZJ+eY40cUquknMGZhOJk79v4nKSpZUGdmo2HAbk3XKEcz+fVh338XcJuneAKd4rtM6QBGb3NJ/W3kydrcrLX3CfNX0hL6373sVm1prFwm+51SvNzInX4N7SgICzpkFrMYG4/oDLvsw7/htrn2rc1RkyQ1+mE/rbb5yIgyf8NeEVLflimMpqHAwBwWuvWAbtlwVVWE77s8ZrVsMcaCbrDL4o+iocoR1LOuPn2aNKxl7ufXaxW5bCZAzvNmsbFuc9UffcCVVGvm/Ojeq3Kv294YmTt2CtJ3+0AmaEhYaByk33JTqJx9jCt2By1woP9Hszpcqww5wwFdqA3ar9afvemWp21pRWjNVQRbfTpf3qyz1mn95kkiKeU7uckbVbNZaLmLzbg3GpPP9uC5e7PyUJPP9ng5A4eGG/GfLL2GagMrlM6n5O0tR3SAXOZLdOHL1Y3m9Vqdl0Hd/P2U3ad7KkJnftMNR5Faqfw3wAAANAlunXAlpx9Wu3+zmnVxhjssGH2lYu/Ys0SO1MzkpQ9AFHbJrtfrPVasTlZ7UWQrKbh7qaVCbFBetz9qq3+hKeGT81YGhJ9Ia3+zs5+kvG+vgrrZs+XW6OJtd1fOFazXVAQ9jSrPRXn7IT2aYew5A81fKT7OclAY2Mk0Uzc06LAYvUTjrrGWoj1/e8KLfsP2QNb+bzHjKeZ65om4illeJ1Sf06C4W2dkg7HmBHVVpcAZx/yYK9TmmKDoLnG4Eg91kZyp/LfAAAA0FW6f8B2aJxtf9Fx9uXzZTahNJtOJmF/cTX743ZKxWgNldRc71+D3JViTcOd/TMT7OCZYdNxswloRowAmxAb8ModZjO3UnW32uHBbO5vDM4WDxmu/pR2n9/80Sqw7x13U9IMz1kgTmyfVu19pq0x0vycOPzgsRrV1NToV/OuN4ssVav1Wpv1QMM54FyCdb5dg54Fzf4sxgX6IK1rmoinlvl1svh8TpJy/w11PShxStaMO1NVxXbIdrRmyfQ63TBfv6qpUU3NP+gHZpnv3zG7X7ZD7HOTGNwwlQ6uQyf+DYh9nv6BQc4AADhtdeOAXa6S581RhO0v44f3pfzCUrB8mtHENxagpnVQcxPrj2uuV6kZmdaa231IXQOtLT8JzQM7aBoe70/o/LJsj0js3/TY/hI5bpp3UJ60Jc6/c8Tw3MVzrYGT0voy61SpGWa/fKOfd/K+vkkG34oNgLZ8tE+/9UzPWRBOYJ/Fz2qqZ3CodKT7OYn5gUbZB5P1rYnyj9jW+c4ZOU3FI0M+YcO6v1x94O3RnjvTDNiq9XQ29zen/0oMNDV0Sor+v6e1dK9Tx5+TZDx/Q+0HJddUOLdntZTpzMOR3MVveGYP8PTzzvA6XT/uW8qSkozCbXdXcPwdK1g+X9co6mopYd0/zhYu1ujp/k3EY33ckwy4lvG/AYnP07CJ85N8ngAAwKnWzefBNud59c4x6jsnqd+cq3I0/3MtNOdA9ftS7p6f1XefNtfxGdtpjc9V7Jin1/eYbI734ZlL1SEx+q/3fCU434M5z2tELxRt0xV+cwVLvtuN7zPN45e858M8r7H9mMdgnW9jbmOf/Xrm5j5sjgZvc0wR5DdfrXmPWdI7Z2ldJ59jj3Ods87v0zUitDLZZ7J1fT4ndo3bXw6V2v/wj/rrylfchTHx7ZnXO8a4v9o2aUWVNNWeUimzc2Z+PiN6oWi1cp+fr/BOv/sqzb8dJ4v9GfFcPz++58S4Tj7rmNtO/zyY96PPZ8XeX/y62QqW79HNA9zb9Ny3vvvM4PhumK9f/e23laVk80i7j7918xI98bvC+LzdsXNm7q+5epjeLPAev6WDc5LOvwEO18/7lX50bZaU9D0AAIBTrZsH7I75hi8AQFr4G3oaiT0kaP6tyn5MvAYA4HTUjZuIAwDQe/zgL7+tLLXrP39LuAYA4HRFwAYA4DR2/bxfqaamRn/Z/z/1j2V/rSW/M9cAAACnCwI2AACnsVcq/1plZWUq++ESJRnJAAAAnCZ6fB9sAAAAAABOBmqwAQAAAAAIAAEbAAAAAIAApGwiDgAAAAAA0kMNNgAAAAAAASBgAwAAAAAQAAI2AAAAAAABSCNgl6uqtE71pXWqH1NuFjoc16rVe7X9geNmAQAAAAAAPV4Gg5yVq6q0TOH9NSreutIstMxpU3NpqyK1ebppmVkIAAAAAEDPlUYNdsxKrdnVLoUu1o1mUcyybC35/bkKl36gVUVmIQAAAAAAPVcGAdvWr78uMZc5rHigvza1fazxs9s1yywEAAAAAKCHyjxgd6iPpr+cI2Uf1rQ5ZhkAAAAAAD1TFwRsScvOVkRS+KrPzBIAAAAAAHqkjAL2y9EWc1ESZ2nbbknf/JJm4gAAAACAXiGjgK2jR3RM+Zp0WaFZ4hE5dK6U/aXCZgEAAAAAAD1QhgH7fpXWluil0E9UX1qn2jSCNgAAAAAAvUFmAbvfg6otrdPV75WouLZEpW+vN9cAAAAAAKBXyihg3zh4pPqqSa+/b5Z4hQd+LLWdqYhZAAAAAABAD5RRwE7fZxo9XNKHZ2qFWQQAAAAAQA/UNQF7zqcK61xtqjnLLAEAAAAAoEfqgoB9XKtubJV2hzS9wSwDAAAAAKBnCjxgz3rgiMZnU3sNAAAAAOhdMgjY5Zo6Ikva/7qWmUUxc9o0/zsfK1J7PrXXAAAAAIBeJY2AXa6q0jrVl5YpfPQP+vutK80VbFbT8OjvL9JNSRM4AAAAAAA90xl5eXlfmQsBAAAAAEBm0qjBBgAAAAAAHSFgAwAAAAAQAJqIS6qoqDAX+aqqqjIXAQAAAAAgEbAtFRUVWvovS83FLnf9t7sI2AAAAACApGgiDgAAAABAAAjYAAAAAAAEoMcH7KLF96uh4S7daRZ06HOtX/ue1t9hLu+MQi25qU61lxWaBd1cT3pfsfne61Q/ptwsBAAAAIAOnb4Bu3i61jY8qmXpjT8WsOP69dOHFI7213NPmmWZmzPmJxrTr0kvvb3eLOrm1mv+zib1HfETVV1olnUnhVpyU5nC+2tUXFui4q0rzRUAAAAAoEOnb8A+hR79xwO6LhTSr2ecq+VmYYZuvKxaUwa3a+u6u7TMLOwJ3r9Lf7+rXeGx1VrSzyzsJvoVamS/dm3dRbAGAAAA0HkEbNOffaz/Z5gU+W1I95plGSvX1BFZOrbrnzX/qFnWc7z89j9r69EsjRn7oG40CwN21nerNXbhUoXMghPRr7/6mssAAAAAIEOBT9NVtPh+3TcuUZV5bPMy3bIg4lgjrIeen6Ox2YklznXuXP6opuYnykyR6ns1xzVblrm9o9pS+aDuq7d+so7niNYU7VJBwySF7bWc+3RO0/XoP76n732zvxYZtdedmabrxsuq9bMRLaquTV57feWf36pLvpOIpa0t76lheWX850HDR+g7U+/QB3vf0bEjH7jWfef3L2v7/3lekjT+e3N0ft4laqz7jS4v/Audm32eJOnjto+0cdUvdPSDA/HfG/+9Obrg0lHxn819Xvnntyr/2hu0Y93/Vt5VY5WTe5Ek6cvPPtXv1zypg7t3xdeNu3Cp6sfmK7KlRBXvm4VBKtfQhWUapHY1PzlFB4PY14VLVT82V1vXTenRD0IAAAAAdK0Aa7DDeuj5R3XfOGlL5b0qKrJe/6RJeqg4sdady6dLVYnyouq96jtujtYutqLvL2fbyysbdcwO1PF1i4xwXTxdaxvmaKwa9VB8nVXS1Okqcqwm5WlqwyQptq3qveo7brrruCyf65phUvTts064abhUqKKLsqT9rycN1+O/N0f5196gN/69RjUP3qWNz/yz+p43QEWz55mr6oJLR2lYwXhtfOafVfPgXTrwxx3Kv/YGhccmBhg786yzde3/+9dqO/hefHvfOPscjSn9gSSp3/kXqOTvFun8vEvi24nts+TvFqnf+RfEt/W1Pn101XfLJEk1D96l/1O1RJ9/+om+/RfTXevFvf+6IpLCF3X1AGEr1bzoETW3ZmnoHXUa+m2zHAAAAABOjeACdsUkjc121x5LUsOCpa6ffznbXa6ql7SlTeo7cowRijt259QC9W1r1EO3rlJDfGlE9812/mwvddZ8V+1SRP10+Q2x+mzbHZ8qrHO049U+7uWd0a9QI/tJkff8+/UOGj5C5+ddooNNOxXZYg1+dnD3Lu1p3KTQ+Re4grPsmuiX/+WxeO3xoT1/lKR4TXXMO79/WZt+bUX6g7t36dhHh/WNc7LU7/wLNKxgnM7uG9Jb//FifDuxfZ6bfZ6GFYxzbevAH3fEa7aPfnBAbQff0zfOPkfn9stxrWdZqdf3Swpd3Ilm4oUaNLdOYxcmec19UGe51l+vg0+UaNduadDkOl3+3Z4wijkAAACA7i6wgH1nQZ7UFlGDMzynJaJ3D5vL0lGkgnzp2M6tnjDttVeNabTunp37haSva99/mCWd0K+/+qpdR5I0OR4UHqGvnfn1eFCO+bjtI8knOH/+SburmXdky3rVLvm7eBNxSfrT8ePx349pWF6puv+1UEc/OKDzh16qP335hY5+0OJa52Bkl7787FP17X++a/mxIx+4ft7062Va+/D/8G8iLumdaLvUr78uMQs6ZAXmLYuSvJ64X5+ZvyIp+myJXt/arr5jfqKxt3e+5nzORfnS0Z1qSHKtAAAAACAdAQXssC4eIOnwwY7Drj39VoPjlarPdVLFg5QrqWW/s39399G3//nxZthl9y+Nv676bpm+1ieAGvQkPv/0E318tNVcLEk6J+QO9d3K8EkalOFUYXPGWPNeX/1eiYrX3a+XzRUAAAAAIAMBBWy7FnrAoNTNvIuna+28AvVtesnVr3pNk7liGuoPqkVS7mCjmXc3cezIB/rT8ePx/tfmy1kzfbJ8EnXXfp88mTYRt4Rur9PVY7J0bOsj2rIo8wHPlm0tUXFtiV6/qE71N3X9COgAAAAAerb0A/YN8/WrmhrV1PyDrCGz3N45dFTKDqvIM3BYQtENYfXVUW1Z02E9dxoBeq8+7GTf7WSWt3xd0hca8mdmSSccPaJjylL/JHNDJ2sK3pU+aP6jzu4b0qDhl7mWJ2uunqlLQlnS0SN6xyzoUKZNxK1APmK4dPDFEr3171Yf9s5a9l6T1G+kipJcKwAAAABIR9oB+/px31KWJGmYRv3QLJUaFryqiPpp7Ly7dKdjedHiu+KjdTfsPyK5BhezRh73byJuB+hxk1zbS4jovvq9UnaB7lvujNhhPbTcHEU8TU+erYg+0ajrjpslmTu6XjuPJh9VO7JlvaIfHPCMBN6V9jRu1qfHorrkOzfGRwIfNHyEhhWMV/SDA/HB1jqnXFcPlhR9t4ubWpdr6MKfaGhOu5qfLFHzf5rlAAAAAHBqpB2wX9n8X2qXJO3Rjn81SyWpQXOKlmlLW56mOvpX/61eSowaXrVUD20+qr7j5tjlc/TN+mRNxCO679aXFJF7e8sqHKtULbWm88qf5OjTPV1a4x1FPD3f0Gt7pNBln2m2WZSx9Wp4r10afLXmmEW2huWVOti009MP25wyKyhHPzigjat+IUn684r5Krt/qSZ8/2/0wd53XPNgd8qFVyusdm3d5T9qelDO+u4kDVKTdnWiSTgAAAAAdKUz8vLyvjIX9jYVFRVa+i9LrR/+7GO9dfcRaesFunxJYrCxu/7bXaqqSmMocpdyVZWWKby/RsVbuzZ4nlqFWnLTTzQm2k3f54VLVT82V1vXTdF8RhIHAAAA0Elp12D3Gv9xrv7/PVJoTKt+fcJ9sVdqza52aXCZqjIc4bo7ufGyv9GYfl1fe91ljh7RMXMZAAAAAGSIgO3j3h9doFejn+i6u6N61CzM0MtvT1H1fik8tlpLeuIgWhcu1c9GZCmypRvX/h59Vy3K0pgR/v3lAQAAACAdBGxfffS9GQMVUVTX3GGWZW7Z1ke09WiWRg4+OYOZnTyFWjIyX8d2PaKKbt0feqUqamsUGVym+tI61Y8haAMAAADIHH2wzT7YSXSuDzYAAAAAoLcgYNsBOx0EbAAAAABAMikDdmlpqV555RUdPnzYLAIAAAAAAA70wQYAAAAAIAAEbAAAAAAAAkDABgAAAAAgAATsk2KWjv+oWV+UzDKWD9Fj99ym2nsmaKakiYWTVXvPbaotG2Ksh9PBzLLbVHvPbXqmMGQWIYlAztmoCdbnIvZK+fkIaUG5td5jo8yyUyz2Psov10Sz7LQWO6eTtSA3xfu4cJW+eGC7jl/oXAgAANC7ELBPgj/NmK8vciLqU7fCLHLZcLhNktR+xPovTszMMp8QYMq9XM+cjmEMCTs2qvTx51T6+IvaFjULT7207rOe5IOP1C5JH0W1wbn8/enq0xTSF7PX6U/O5QAAAL0IAbuLfVWyXZ/nR/X15Tf5nOw2fRSVFP1Iu82iuFgtt88rZU0egvZUzXMqffw5fX/9aZjyTlMn/5xFtXiltc8f7zDLTrHYg4KVb7mD6Wkvqvc+kqQ2vddilrl97ekl+nprWJ//aJWSTk8BAADQg3kzHwL0sI6PDanPlifU532zzIddM3TwsE8Y2RurxXO8avaZawFA12qJ6mDSljYr1Oc3m9QnZ7y+9HSJAQAA6Pm65zzYxdO1dl6BWqrv1Zwqs1AqWny/7ht3RGuKluqXjvX7xtc4qi2VD+q+er/feUkXPz9HY7PtgrZGPXTrKjUotp2w3qp8UO9OfVRT833WcfiqZLs+G3tI33jAr/Y6XUP02D0TNHzvxpSBemLhZN1d0Ka1j2/XReWTNTrW5TW6XT+P15iFtKB8skZ/tFGlr4b0zPQrlWWv1t74olHLaO83/nNU21a9qMWOGqz09pmB3Mtdx5Rg7HvUBNUWO2rvnecm6TZs9rENL7tNt+SZhQm76xM1oDONdZ1lMRMLJ+vu/Gb9fGVUtzjOm/e8+hx/3D6tfXyjnjIXp9TRdbLKVf+c1g6YrLsLYhfJf1/WNU30l/Y9/jTWS+ecSX7Xyzx+J8f96/ks2GXxQ/LfjnncCd71zffQmftsg3yud4rPsuf4jHUzus88x+h/zbvCn2Y06/P8yAn+7QMAAOh+umfAVpGWNUxS7uZlumVBxCy0wvLIiB16i7Ts+UH6jSMA37n8UU3Nd4dsK2D3kyQdi2/X2k+46SUVzW5wBfWk68TN0vEfzdcXH67W2U//1LE8U5kEbOuLeeLLtvm7zhDiCBR2AIiHIPtn55f22PadQSm9fabJDgOKbyd2rO5QYO1TjjCUfH8zy27TLed1EPbt/R5MFgCdUqybOBcpzqv8ltnH36mHEn7vfYgeKw9pbXxbjgAe34d9buXepxUoHefbc03kuC7uQDqxcIIm7troCbSpzpn3WGPH4A27llQB22HUBNUWZyfZhsna5mVN7oA6sXCybjn8YuKYY2G1s/eZ1MHx+93v3nsj7fvM79rlXq5nrovq+559d4HR6/TpX4R15v83VGduMwsBAAB6rm5aubBXHzpbJ1bcpYaG+/VQsfXjJQP7SYcP2oG6QXOM2uVfrmnUMfXT5TeEHUstkep7HaG9QY1NkgYMUpFzpaaXOl7nwkL9KUc6c+eJhOvM7a539nfdpx17JZ0XMgZg2qe1jzvCx4692i1p0ICQ9UV/7BBp70ZX4Niw/hVti0rDx3oHc0pvn6lNHDFUWdqndfHtRLV4yz5JQzQqPgDZEN1SEFJ74yuO4LRPP67fJ+VdaY1wfIrtrk92Xi0zLx0iRbdrbTxs7tPaxqgUGqqJmR5/bkiDJO3+ozMw7dOP/YKeK8Db59a5z9zLdVOetLveUcPZ8paWN0aVVXClZsaWjbrSE64lacN6n3DdIe+xPvXqdrUrpMtG+NUyB29i4fUare1abtT+bljvCNeyzsW6vZLy8hLnIkjx8+qsYbbv7dCVusUYhK+j+0znn6csRfX2Lsf7annr5IRrSdq2TWdK+mogzcQBAEDv0k0DdkTvHpb6DrTabxYN7i/FA3NYFw8w1zfUH5R/FjiqD40K8V/OvldFRkCPNJqNwX1cMFDHFdUZB8yCTsozpirynfooqo8+cC95qsZnUCXPoGr79OPYQFS5Q3RZyK9/ZVQbmqJS6DxHc2RreVr77MDw/uZ7iXFsf1SehpuhQbG+6yGdd7578cm3Tzs8tbROIV10nrkspuMBpDzsvrDDizseBb29aZ/7ehjnLPaAwzx+a2T7bF1kB3HrAUGzNmR6rOmy39NJkXu5ZheEtHtLevfq7iPGfRegmZcO8b8H/MKzz3XysK/v6On21FonXURntErHB3gfYgIAAPRk3TRgS+8cOmrXGodVNFLasnlvPHBL0rFDe+P/X7T4fjU0POp4TVK3+9rnM8iZp89lgHwHWpNcYStIVs3lEN0Uf2hg16Q7wtzEAdmSQho93RhNPVVf2NNKrObYWSNp1cpr795O9I3dpx/bU1cNL46dj84FKusBxxDdYo5U7+orbj8gMKdnOgHxud/jL2d/8q4U0oKbrSbf3qbrsptnu8+Ff9/tAHkefCVk9Y8NCpGmlrf0/cc3arfr8zKha2rfAQAAENdtA7YkKbu/LlGevqmIGn53RMfyR+hO5emb2VLLfqsqOta3OlJ9r4qKYq+X5O25jfT41LIF4fzzlCUpqyAWuLx9hK3a1Ki2rTJGU7df/kHp9GI9JHAGYrMPdaYS01KVrrKaV3em1tKqnd2ntT7ntTTencCerinD5v/JOPv1J/a1MWnIDNLEwuut/s6+593R99lxHn7emOyhU9fztihJh9UypfTx51Rab3W3uIWQDQAA0KW6bcBu2H/E+p+KEQofPqiG+q16qy1PBRVyNPUOq2hkP6mtUb/xGW28Sx04pD4K6asLzILTXMs+vR2Vhl9qjnId0sT8zta0diTR79sV7Mxm5hk2Bd99xK9Ju8FukuxugttVYn3IX3S/T9+Q1wktb+n7dsju6ByZTcLNpuDJWOe0E/3FPez7ydUf/SSJNQ139jd3GpWn4VJmTcc7us868NQfjT7xMcm6RWRqx0Y7ZPtd45AWlFsPfDrqapC+sL7Kkfoc5lEmAADoXbptwFbkiI4pT1On5Nl9oiNq2HlU4SmTFNYRvVuveF9tZYdVZA+ApuLpWnsymoi/v15fa5W+HPmwWXKas5sx501wfdm2avyi2vZqQGHQJc2aUXugqeHF6dXQWqHR2ezcT5s+iso9kFeXsfeVaXPfZEZN8PTDt4Kzt1+8ix0w2xu3JwLmju3aFg1p9PTUNZwb1m+3mx2715tYOCGta5JgX3NjoLVnuryJeEdNwxPz0TsfMs0sS95EPL37rAOx83+zcxDBIXqseIi0d3vGA8hNLJzsCctJ+3nb4y7IeM8nZPRofSnpjEMrzBIAAIAerZtO06XE9Fja653v2jUvdVgPOee11l6tKdqlAmOaL6spuTzzY7skmX/7zuWPauoA71zYgc6DbS6We45c7/RVfvynZ/Jlzt3rM4duevtMV/L3ac6h7JkrWOYo2QmedX3X8+7bM42WoywhcU6s/bQZ58j63UHmVEm+fca9I3Onw/P+PNfJ//jNcxrjmftZ3rmYE1NKJZa452H236fFeXzmdvZp7eN7Nco4Z77HZIu/j6Tn1X3NvecrwfUejPu/vfFFLdf1PtfY4tmuY59pHb/kcz7M85rBfea3X997X679JrsvMvWnGc36/JubdNY/TtcZZiEAAEAP1o0DdnfwsL58YJq+bDrRubB7Ou98vzGp50XuZpLOpew3B3JQ/MMX0GUuXKUvZo/XGcyBDQAAeqHOV6wiDT9Vny1RKX+avhxtliHOns/ZM5VUF0+NdNLZA7m5561Work00O3N0vG/Gq/jrZvUh3ANAAB6IQJ2Fzuj7kp9o0n68i+26/iFZimkxEBjWflD3H2w7b7CXTrv8snk07dXspoj35KnLhpADjh5/jRjvr7IiegbNA0HAAC9FE3ET4pZOv6j+frTfy3R1+sY9Meff79dsw9qt5ekr3BQfV+9aCKOk+TCVfpi9hX62vIr1ed9sxAAAKB3IGADAAAAABAAmogDAAAAABAAAjYAAAAAAAFI2UT8nHPOMRf5mjlzprnI49JvXSJJuu9n880iAAAAAAC6vcAC9spVK83FLo/8z4clAjYAAAAAoIdKK2B/8sknZpFLRUWFlv7LUnOxyz89/L8kSXf/6B6zCAAAAACAbo8+2AAAAAAABCCNgP0DVZXWqb60TvVjys1Ch+P69dPv6a35x80CAAAAAAB6vDQC9r+porZExbU1igwuSxGy++h7/xFSaMwBrb/DLAMAAAAAoGdLI2DHrNSaXe1S6GLdaBbFPBnSoq3nKPyXH+rXf2YWAgAAAADQc2UQsG39+suacMvf8iU5ejX6ia6742PNNgsBAAAAAOihMg/YHbKaiit0RLfRVBwAAAAA0Et0QcCW9OTZikgKj/rcLAEAAAAAoEfKKGC/HG0xFyXxDb22R9I3v6SZOAAAAACgV8goYOvoER1TviZdVmiWeLzzwTlS6MuU/bUBAAAAAOgpMgzY96u0tkQvhX6i+tI61aYRtAEAAAAA6A0yC9j9HlRtaZ2ufq9ExbUlKn17vbkGAAAAAAC9UkYB+8bBI9VXTXr9fbPE65LzP5GiZ+odswAAAAAAgB4oo4Cdvs91zTBJH56p5WYRAAAAAAA9UNcE7Ds+VVjn6NX//Q2zBAAAAACAHqkLAvZx/frPotKefvref5hlAAAAAAD0TIEH7NnzW3VdiNprAAAAAEDvkkHALtfUEVnS/te1zCyKuSOqhWM+UeS336T2GgAAAADQq6QRsH+gqtI61ZeWKXz0D/r7rSvNFWxW0/Do1gtU+KRZBgAAAABAz5ZGwP43VdRa814Xr7tfL5vFcX30vRkX6fIlfcwCAAAAAAB6vDPy8vK+MhfGnHPOOeYiXzNnztTKVclqti2P/M+HJUn3/Wy+WQQAAAAAQLcXWMDuyKXfukQiYAMAAAAAeqiUARsAAAAAAKQnjT7YAAAAAACgIwRsAAAAAAACQMAGAAAAACAABGwAAAAAAAJAwAYAAAAAIAAEbAAAAAAAAkDABgAAAAAgAARsAAAAAAACQMAGAAAAACAABGwAAAAAAAJAwAYAAAAAIAAEbAAAAAAAAkDABgAAAAAgAARsAAAAAAACQMAGAAAAACAABGwAAAAAAAJAwAYAAAAAIAAEbAAAAAAAAkDABgAAAAAgAARsAAAAAAACQMAGAAAAACAABGwAAAAAAAJAwAYAAAAAIAAEbAAAAAAAAkDABgAAAAAgAARsAAAAAAACQMAGAAAAACAABGwAAAAAAAJAwAYAAAAAIAAEbAAAAAAAAkDABgAAAAAgAARsAAAAAAACQMAGAAAAACAABGwAAAAAAAJAwAYAAAAAIAAEbAAAAAAAAkDABgAAAAAgAARsAAAAAAACQMAGAAAAACAABGwAAAAAAAJAwAYAAAAAIAAEbAAAAAAAAkDABgAAAAAgAARsAAAAAAACQMAGAAAAACAABGwAAAAAAAJAwAYAAAAAIAAEbAAAAAAAAkDABgAAAAAgAARsAAAAAAACQMAGAAAAACAABGwAAAAAAAJAwAYAAAAAIAAEbAAAAAAAAkDABgAAAAAgAARsAAAAAAACQMAGAAAAACAABGwAAAAAAAJAwAYAAAAAIAAEbAAAAAAAAkDABgAAAAAgAARsAAAAAAAC8H8BySQJam3F2bgAAAAASUVORK5CYII=;" vertex="1" parent="1">
          <mxGeometry x="768.003414713542" y="992" width="984" height="237" as="geometry" />
        </mxCell>
        <mxCell id="MY_W3X7f-8wFEVNyCxj--11" value="" style="endArrow=classic;html=1;rounded=0;strokeColor=#FF0000;" edge="1" parent="1">
          <mxGeometry width="50" height="50" relative="1" as="geometry">
            <mxPoint x="1345" y="1040" as="sourcePoint" />
            <mxPoint x="1206" y="1013" as="targetPoint" />
          </mxGeometry>
        </mxCell>
        <mxCell id="MY_W3X7f-8wFEVNyCxj--12" value="Makes a request to the backend to get information" style="text;html=1;align=center;verticalAlign=middle;whiteSpace=wrap;rounded=0;fontSize=18;" vertex="1" parent="1">
          <mxGeometry x="1329" y="1013" width="229" height="57" as="geometry" />
        </mxCell>
        <mxCell id="MY_W3X7f-8wFEVNyCxj--13" value="" style="endArrow=classic;html=1;rounded=0;strokeColor=#FF0000;" edge="1" parent="1">
          <mxGeometry width="50" height="50" relative="1" as="geometry">
            <mxPoint x="1391" y="1098" as="sourcePoint" />
            <mxPoint x="1252" y="1071" as="targetPoint" />
          </mxGeometry>
        </mxCell>
        <mxCell id="MY_W3X7f-8wFEVNyCxj--14" value="Saves the response in a variable" style="text;html=1;align=center;verticalAlign=middle;whiteSpace=wrap;rounded=0;fontSize=18;" vertex="1" parent="1">
          <mxGeometry x="1356" y="1091" width="188" height="57" as="geometry" />
        </mxCell>
        <mxCell id="MY_W3X7f-8wFEVNyCxj--15" value="" style="endArrow=classic;html=1;rounded=0;strokeColor=#FF0000;" edge="1" parent="1">
          <mxGeometry width="50" height="50" relative="1" as="geometry">
            <mxPoint x="1255" y="1183" as="sourcePoint" />
            <mxPoint x="1137" y="1148" as="targetPoint" />
          </mxGeometry>
        </mxCell>
        <mxCell id="MY_W3X7f-8wFEVNyCxj--16" value="If there&#39;s an error in getting the response from the backend, the user is informed appropriately." style="text;html=1;align=center;verticalAlign=middle;whiteSpace=wrap;rounded=0;fontSize=18;" vertex="1" parent="1">
          <mxGeometry x="1255" y="1165" width="305" height="57" as="geometry" />
        </mxCell>
      </root>
    </mxGraphModel>
  </diagram>
</mxfile>
